<?xml version="1.0" standalone="no"?><!DOCTYPE svg PUBLIC "-//W3C//DTD SVG 1.1//EN" "http://www.w3.org/Graphics/SVG/1.1/DTD/svg11.dtd"><svg t="1582268333392" class="icon" viewBox="0 0 1024 1024" version="1.1" xmlns="http://www.w3.org/2000/svg" p-id="3490" xmlns:xlink="http://www.w3.org/1999/xlink" width="200" height="200"><defs><style type="text/css"></style></defs><path d="M128 896h768c70.4 0 128-57.6 128-128s-57.6-128-128-128h-256v-25.6c115.2-51.2 192-160 192-294.4 0-179.2-140.8-320-320-320S192 140.8 192 320c0 134.4 76.8 243.2 192 294.4v25.6H128c-70.4 0-128 57.6-128 128s57.6 128 128 128zM992 960H32c-19.2 0-32 12.8-32 32s12.8 32 32 32h960c19.2 0 32-12.8 32-32s-12.8-32-32-32z" p-id="3491"></path></svg>