<?xml version="1.0" standalone="no"?><!DOCTYPE svg PUBLIC "-//W3C//DTD SVG 1.1//EN" "http://www.w3.org/Graphics/SVG/1.1/DTD/svg11.dtd"><svg t="1582765977982" class="icon" viewBox="0 0 1024 1024" version="1.1" xmlns="http://www.w3.org/2000/svg" p-id="1823" xmlns:xlink="http://www.w3.org/1999/xlink" width="200" height="200"><defs><style type="text/css"></style></defs><path d="M942.08 846.506667l-133.12 129.706667c-10.24 10.24-20.48 13.653333-34.133333 13.653333-13.653333 0-27.306667-6.826667-34.133333-13.653333l-64.853333-64.853333c-10.24-10.24-13.653333-20.48-13.653333-34.133333 0-27.306667 20.48-47.786667 47.786667-47.786667 13.653333 0 27.306667 6.826667 34.133333 13.653333l30.72 30.72 95.573333-95.573333 0 0c10.24-10.24 20.48-13.653333 34.133333-13.653333 27.306667 0 47.786667 20.48 47.786667 47.786667C955.733333 826.026667 948.906667 836.266667 942.08 846.506667zM791.893333 788.48l-17.066667 17.066667c-17.066667-13.653333-40.96-23.893333-64.853333-23.893333-54.613333 0-98.986667 44.373333-98.986667 95.573333 0 27.306667 10.24 51.2 27.306667 68.266667l0 0 27.306667 27.306667 0 0-174.08 0 0 0L116.053333 972.8c-27.306667 0-47.786667-20.48-47.786667-47.786667L68.266667 81.92C68.266667 58.026667 88.746667 34.133333 116.053333 34.133333l116.053333 0 146.773333 0 0 177.493333 0 98.986667c0 54.613333 44.373333 98.986667 98.986667 98.986667l98.986667 0 215.04 0 0 290.133333 0 0L791.893333 788.48zM477.866667 358.4c-27.306667 0-47.786667-20.48-47.786667-47.786667L430.08 211.626667 430.08 34.133333l361.813333 324.266667-215.04 0L477.866667 358.4z" p-id="1824"></path></svg>